<svg xmlns="http://www.w3.org/2000/svg" xmlns:xlink="http://www.w3.org/1999/xlink" xmlns:fi="http://pattern.flaticon.com/" x="0" y="0" width="1200" height="600" viewBox="0 0 3230.7692307692305 1615.3846153846152"><rect x="0px" y="0px" width="100%" height="100%" opacity="1" fill="#ffffff"/><defs><g transform="matrix(1.5 0 0 1.5 305 305)" id="L1_449"><path d="M40.949,12h-2.512c-2.483,0-4.639,1.683-5.241,4.093L31.72,22H52.28l-1.477-5.907C50.201,13.683,48.046,12,45.563,12   h-2.613C42.436,5.299,36.83,0,30,0h-7C13.075,0,5,8.075,5,18v36H0v6h12v-6H7V18C7,9.178,14.178,2,23,2h7   C35.728,2,40.442,6.402,40.949,12z M48.864,16.577L49.72,20H34.28l0.855-3.423C35.516,15.06,36.873,14,38.438,14h7.125   C47.127,14,48.484,15.06,48.864,16.577z M10,56v2H2v-2H10z"/><path d="M57.486,27h-2.973C53.128,27,52,28.128,52,29.514v0.515c-3.355,0.284-6,3.101-6,6.528V39H34.1c-1.709,0-3.1,1.391-3.1,3.1   V57h2v3h6v-3h13v3h6v-3h2V41v-2v-9.486C60,28.128,58.872,27,57.486,27z M48,36.557c0-2.324,1.749-4.247,4-4.522V39h-4V36.557z    M37,58h-2v-1h2V58z M56,58h-2v-1h2V58z M58,55h-6H39h-6V42.1c0-0.606,0.493-1.1,1.1-1.1H46h6h2h4V55z M54,39v-9v-0.486   C54,29.23,54.23,29,54.514,29h2.973C57.77,29,58,29.23,58,29.514V39H54z"/></g><path d="M165,0C74.019,0,0,74.019,0,165s74.019,165,165,165c90.982,0,165-74.019,165-165S255.982,0,165,0z" transform="matrix(0.03030303120613098 0 0 0.03030303120613098 345 82.5)" id="L1_454" fill="#99edf6"/><g transform="matrix(0.6666666865348816 0 0 0.6666666865348816 242.5 67.5)" id="L1_451"><path d="M17.5,21h24V4h-24V21z M19.5,6h20v13h-20V6z"/><path d="M55.5,44c0.552,0,1-0.447,1-1V21.028c1.25-1.66,2-3.716,2-5.948V5.247C58.5,2.354,56.146,0,53.253,0H6.747   C3.854,0,1.5,2.354,1.5,5.247v9.832c0,3.25,1.578,6.131,4,7.941v29.018c-2.235,0.198-4,2.059-4,4.345V60h57v-3.616   c0-2.417-1.967-4.384-4.384-4.384H53.5V23.682c0.348-0.2,0.68-0.422,1-0.661V43C54.5,43.553,54.948,44,55.5,44z M54.116,54   c1.314,0,2.384,1.069,2.384,2.384V58h-53v-1.616C3.5,55.069,4.569,54,5.884,54h20.137h6.958H53.5H54.116z M22.5,48.479V41h14v7.479   C36.5,50.42,34.92,52,32.979,52h-6.958C24.08,52,22.5,50.42,22.5,48.479z M51.5,52H37.228c0.794-0.957,1.272-2.184,1.272-3.521V39   h-16h-2h-3c-2.757,0-5,2.243-5,5s2.243,5,5,5h3.026c0.107,1.134,0.556,2.169,1.246,3H7.5V24.191   c0.008,0.003,0.017,0.006,0.025,0.009c0.236,0.101,0.479,0.187,0.724,0.27c0.069,0.023,0.135,0.053,0.204,0.075   c0.295,0.093,0.597,0.17,0.904,0.235c0.02,0.004,0.039,0.011,0.058,0.015C10.063,24.929,10.734,25,11.421,25H21.5v7   c0,2.206,1.794,4,4,4h1v1c0,0.553,0.448,1,1,1s1-0.447,1-1v-1h2v1c0,0.553,0.448,1,1,1s1-0.447,1-1v-1h1   c1.858,0,3.411-1.28,3.858-3H44.5c1.654,0,3-1.346,3-3s-1.346-3-3-3h-7v-2h11.079c0.452,0,0.893-0.041,1.329-0.1   c0.102-0.014,0.203-0.03,0.304-0.047c0.439-0.073,0.871-0.165,1.289-0.294V52z M17.5,47c-1.654,0-3-1.346-3-3s1.346-3,3-3h3v6H17.5   z M33.807,31c-0.169,0-0.307-0.138-0.307-0.307v-1.387c0-0.169,0.138-0.307,0.307-0.307H37.5h7c0.551,0,1,0.448,1,1s-0.449,1-1,1   h-7H33.807z M35.5,27h-1.693c-1.272,0-2.307,1.035-2.307,2.307v1.387c0,1.271,1.035,2.307,2.307,2.307h1.425   c-0.346,0.598-0.993,1-1.731,1h-8c-1.103,0-2-0.897-2-2v-7h12V27z M52.352,22.042l-0.014,0.007   c-0.103,0.056-0.213,0.102-0.319,0.154c-0.243,0.117-0.49,0.221-0.739,0.313c-0.036,0.013-0.072,0.027-0.108,0.04   c-0.23,0.081-0.463,0.147-0.698,0.206c-0.057,0.014-0.112,0.031-0.169,0.044c-0.221,0.05-0.444,0.086-0.668,0.116   c-0.066,0.009-0.13,0.023-0.196,0.03C49.157,22.982,48.869,23,48.579,23H37.5h-16H11.421c-0.349,0-0.694-0.031-1.036-0.076   c-0.088-0.011-0.175-0.026-0.262-0.04c-0.302-0.05-0.601-0.115-0.894-0.199c-0.038-0.011-0.078-0.018-0.116-0.03   c-0.325-0.099-0.642-0.224-0.953-0.365c-0.074-0.033-0.146-0.07-0.218-0.105c-0.278-0.136-0.55-0.287-0.812-0.457   C4.95,20.315,3.5,17.865,3.5,15.079V5.247C3.5,3.457,4.957,2,6.747,2h46.506C55.043,2,56.5,3.457,56.5,5.247v9.832   C56.5,18.081,54.821,20.699,52.352,22.042z"/><path d="M48.5,3c-2.757,0-5,2.243-5,5s2.243,5,5,5s5-2.243,5-5S51.257,3,48.5,3z M48.5,11c-1.654,0-3-1.346-3-3s1.346-3,3-3   s3,1.346,3,3S50.154,11,48.5,11z"/><path d="M48.5,14c-2.206,0-4,1.794-4,4s1.794,4,4,4s4-1.794,4-4S50.706,14,48.5,14z M48.5,20c-1.103,0-2-0.897-2-2s0.897-2,2-2   s2,0.897,2,2S49.603,20,48.5,20z"/><path d="M7.5,11h8V4h-8V11z M9.5,6h4v3h-4V6z"/><path d="M7.5,21h8v-7h-8V21z M9.5,16h4v3h-4V16z"/><path d="M21.5,11c0.256,0,0.512-0.098,0.707-0.293l2-2c0.391-0.391,0.391-1.023,0-1.414s-1.023-0.391-1.414,0l-2,2   c-0.391,0.391-0.391,1.023,0,1.414C20.988,10.902,21.244,11,21.5,11z"/><path d="M27.793,7.293l-7,7c-0.391,0.391-0.391,1.023,0,1.414C20.988,15.902,21.244,16,21.5,16s0.512-0.098,0.707-0.293l7-7   c0.391-0.391,0.391-1.023,0-1.414S28.184,6.902,27.793,7.293z"/></g><path d="M49,11.289v5.422C49,16.87,48.87,17,48.71,17H48V2h10c0.552,0,1-0.447,1-1s-0.448-1-1-1H47c-0.044,0-0.082,0.02-0.124,0.025  c-0.072,0.009-0.142,0.017-0.211,0.042c-0.066,0.024-0.122,0.06-0.18,0.096c-0.039,0.024-0.083,0.034-0.119,0.064L3.841,35.191  c-0.426,0.351-0.488,0.981-0.137,1.407c0.198,0.241,0.484,0.365,0.773,0.365c0.224,0,0.449-0.074,0.635-0.228L7,35.183V49H2.29  C1.027,49,0,50.027,0,51.289V59h59V9h-7.71C50.027,9,49,10.027,49,11.289z M41.29,17C40.027,17,39,18.027,39,19.289V25h-1V9.695  l8-6.578V17H41.29z M32.29,25C31.027,25,30,26.027,30,27.289v5.422C30,32.87,29.87,33,29.71,33H29V17.095l7-5.756V25H32.29z   M22.29,33C21.027,33,20,34.027,20,35.289v5.422C20,40.87,19.87,41,19.71,41H19V25.317l8-6.578V33H22.29z M9,33.539l8-6.578V41  h-4.71C11.027,41,10,42.027,10,43.289v5.422C10,48.87,9.87,49,9.71,49H9V33.539z M57,57H2v-5.711C2,51.13,2.13,51,2.29,51H9.71  c1.263,0,2.29-1.027,2.29-2.289v-5.422C12,43.13,12.13,43,12.29,43h7.421c1.263,0,2.29-1.027,2.29-2.289v-5.422  C22,35.13,22.13,35,22.29,35h7.421c1.263,0,2.29-1.027,2.29-2.289v-5.422C32,27.13,32.13,27,32.29,27H41v-7.711  C41,19.13,41.13,19,41.29,19h7.421c1.263,0,2.29-1.027,2.29-2.289v-5.422C51,11.13,51.13,11,51.29,11H57V57z" transform="matrix(0.33898305892944336 0 0 0.33898305892944336 165 165)" id="L1_452"/><g transform="matrix(-1 0 0 1 117.5 57.5)" id="L1_453"><path d="M40.949,12h-2.512c-2.483,0-4.639,1.683-5.241,4.093L31.72,22H52.28l-1.477-5.907C50.201,13.683,48.046,12,45.563,12   h-2.613C42.436,5.299,36.83,0,30,0h-7C13.075,0,5,8.075,5,18v36H0v6h12v-6H7V18C7,9.178,14.178,2,23,2h7   C35.728,2,40.442,6.402,40.949,12z M48.864,16.577L49.72,20H34.28l0.855-3.423C35.516,15.06,36.873,14,38.438,14h7.125   C47.127,14,48.484,15.06,48.864,16.577z M10,56v2H2v-2H10z"/><path d="M57.486,27h-2.973C53.128,27,52,28.128,52,29.514v0.515c-3.355,0.284-6,3.101-6,6.528V39H34.1c-1.709,0-3.1,1.391-3.1,3.1   V57h2v3h6v-3h13v3h6v-3h2V41v-2v-9.486C60,28.128,58.872,27,57.486,27z M48,36.557c0-2.324,1.749-4.247,4-4.522V39h-4V36.557z    M37,58h-2v-1h2V58z M56,58h-2v-1h2V58z M58,55h-6H39h-6V42.1c0-0.606,0.493-1.1,1.1-1.1H46h6h2h4V55z M54,39v-9v-0.486   C54,29.23,54.23,29,54.514,29h2.973C57.77,29,58,29.23,58,29.514V39H54z"/></g><path d="M165,0C74.019,0,0,74.019,0,165s74.019,165,165,165c90.982,0,165-74.019,165-165S255.982,0,165,0z" transform="matrix(0.03030303120613098 0 0 0.03030303120613098 82.5 257.5)" id="L1_455" fill="#40b084"/><g transform="matrix(0.3333444595336914 0 0 0.3333444595336914 340 165)" id="L1_456"><path d="M26.292,25.706c0.195,0.195,0.451,0.293,0.707,0.293s0.512-0.098,0.707-0.293l0.92-0.92   c0.433,0.213,0.901,0.332,1.373,0.332s0.94-0.12,1.373-0.332l0.92,0.92c0.195,0.195,0.451,0.293,0.707,0.293   s0.512-0.098,0.707-0.293c0.391-0.391,0.391-1.023,0-1.414l-0.919-0.919c0.426-0.866,0.426-1.881,0-2.747l0.919-0.919   c0.391-0.391,0.391-1.023,0-1.414s-1.023-0.391-1.414,0l-0.92,0.92c-0.866-0.425-1.88-0.425-2.747,0l-0.92-0.92   c-0.391-0.391-1.023-0.391-1.414,0s-0.391,1.023,0,1.414l0.92,0.92c-0.426,0.866-0.426,1.88,0,2.747l-0.92,0.92   C25.901,24.683,25.901,25.315,26.292,25.706z M30.792,21.206c0.437,0.438,0.437,1.148,0,1.586c-0.438,0.438-1.148,0.438-1.586,0   c-0.437-0.438-0.437-1.148,0-1.586c0.219-0.219,0.506-0.328,0.793-0.328S30.573,20.987,30.792,21.206z"/><path d="M59.843,26.736c-0.529-2.138-2.589-3.69-4.916-3.73c-2.367-3.681-6.435-5.96-10.792-6.007c-2.093-4.744-7.786-8-14.136-8   s-12.042,3.257-14.136,8c-4.357,0.047-8.425,2.326-10.792,6.008c-2.527,0.043-4.677,1.858-5.02,4.264   c-0.322,2.261,0.917,4.41,2.948,5.296v9.516c0,1.842,1.283,3.381,3,3.796v4.119c0,0.552,0.448,1,1,1h3   c0.409,0,0.776-0.249,0.929-0.628l1.749-4.372h34.645l1.749,4.372c0.152,0.379,0.52,0.628,0.929,0.628h3c0.553,0,1-0.448,1-1V45.88   c1.717-0.415,3-1.954,3-3.796v-9.514C59.224,31.61,60.451,29.191,59.843,26.736z M15.999,18.999c1.654,0,3,1.346,3,3   c0,0.552,0.448,1,1,1s1-0.448,1-1c0-2.083-1.282-3.868-3.096-4.619c1.928-3.801,6.724-6.381,12.096-6.381s10.169,2.58,12.096,6.381   c-1.815,0.751-3.096,2.536-3.096,4.619c0,0.552,0.448,1,1,1s1-0.448,1-1c0-1.654,1.346-3,3-3c3.444,0,6.69,1.653,8.762,4.388   c-0.551,0.211-1.061,0.5-1.518,0.858c-0.002,0.001-0.004,0.003-0.006,0.004c-0.212,0.167-0.413,0.347-0.6,0.541   c-0.038,0.039-0.072,0.08-0.109,0.12c-0.139,0.153-0.271,0.313-0.393,0.48c-0.039,0.052-0.08,0.102-0.117,0.156   c-0.132,0.193-0.251,0.395-0.359,0.604c-0.039,0.075-0.074,0.151-0.11,0.227c-0.085,0.183-0.162,0.37-0.228,0.563   c-0.017,0.05-0.039,0.098-0.055,0.149c-0.075,0.239-0.13,0.486-0.174,0.736c-0.012,0.068-0.022,0.136-0.031,0.205   c-0.037,0.264-0.062,0.531-0.062,0.805v4.728c-6.189-2.112-12.866-1.987-19,0.367c-6.134-2.354-12.81-2.479-19-0.367v-4.728   c0-0.274-0.026-0.542-0.062-0.806c-0.009-0.068-0.019-0.136-0.031-0.204c-0.044-0.251-0.099-0.499-0.174-0.738   c-0.015-0.049-0.036-0.096-0.053-0.145c-0.067-0.195-0.144-0.384-0.231-0.569c-0.035-0.075-0.069-0.149-0.107-0.221   c-0.109-0.21-0.229-0.414-0.362-0.609c-0.035-0.051-0.074-0.098-0.111-0.148c-0.126-0.171-0.26-0.335-0.403-0.491   c-0.034-0.037-0.066-0.075-0.101-0.111c-0.591-0.615-1.316-1.097-2.126-1.407C9.309,20.652,12.555,18.999,15.999,18.999z    M11.532,37.999c-0.294,0-0.533-0.239-0.533-0.533v-1.78c5.83-2.161,12.17-2.161,18,0v2.313H11.532z M30.999,35.685   c5.83-2.161,12.17-2.161,18,0v1.78c0,0.294-0.239,0.533-0.533,0.533H30.999V35.685z M9.322,48.999H7.999v-3h2.523L9.322,48.999z    M51.999,48.999h-1.323l-1.2-3h2.523V48.999z M55.748,30.889c-0.089,0.023-0.169,0.065-0.246,0.11h-1.503c-0.553,0-1,0.448-1,1   c0,0.552,0.447,1,1,1h1v9.084c0,1.056-0.859,1.916-1.916,1.916h-0.084h-5h-36h-5H6.914c-1.056,0-1.916-0.859-1.916-1.916v-9.084h1   c0.552,0,1-0.448,1-1c0-0.552-0.448-1-1-1H4.495c-0.077-0.045-0.157-0.087-0.246-0.11c-1.481-0.383-2.435-1.817-2.218-3.335   c0.207-1.457,1.553-2.555,3.13-2.555c0.107,0,0.208,0.023,0.312,0.032c0.013,0.002,0.025,0.007,0.038,0.008   c0.494,0.046,0.957,0.181,1.375,0.389c0.008,0.004,0.017,0.009,0.025,0.014c0.19,0.096,0.369,0.209,0.538,0.333   c0.046,0.035,0.089,0.074,0.134,0.11c0.129,0.104,0.254,0.214,0.368,0.334c0.071,0.076,0.134,0.159,0.198,0.24   c0.079,0.098,0.159,0.194,0.228,0.299c0.076,0.117,0.137,0.243,0.2,0.368c0.044,0.087,0.094,0.169,0.131,0.259   c0.063,0.155,0.107,0.319,0.15,0.483c0.019,0.073,0.048,0.142,0.063,0.217c0.048,0.243,0.076,0.494,0.076,0.751v6.162v2.467v1.533   c0,0.552,0.448,1,1,1h1.533h18.467h18.467h1.533c0.553,0,1-0.448,1-1v-1.533v-2.467v-6.162c0-0.257,0.027-0.508,0.076-0.751   c0.015-0.075,0.044-0.144,0.063-0.218c0.043-0.164,0.086-0.327,0.15-0.482c0.037-0.091,0.088-0.174,0.132-0.261   c0.063-0.125,0.124-0.251,0.2-0.367c0.069-0.105,0.15-0.201,0.228-0.299c0.065-0.081,0.127-0.165,0.198-0.24   c0.114-0.12,0.239-0.229,0.368-0.334c0.045-0.037,0.087-0.076,0.134-0.11c0.169-0.125,0.349-0.238,0.539-0.334   c0.008-0.004,0.016-0.009,0.025-0.013c0.418-0.208,0.882-0.344,1.376-0.389c0.013-0.001,0.025-0.007,0.038-0.008   c0.105-0.009,0.205-0.032,0.312-0.032c1.457,0,2.746,0.933,3.064,2.218c0,0,0,0,0,0C58.355,29.049,57.164,30.523,55.748,30.889z"/></g><g transform="matrix(-1.0000333786010742 0 0 1.0000333786010742 204.00196933746338 232.4999991759978)" id="L1_457"><path d="M26.292,25.706c0.195,0.195,0.451,0.293,0.707,0.293s0.512-0.098,0.707-0.293l0.92-0.92   c0.433,0.213,0.901,0.332,1.373,0.332s0.94-0.12,1.373-0.332l0.92,0.92c0.195,0.195,0.451,0.293,0.707,0.293   s0.512-0.098,0.707-0.293c0.391-0.391,0.391-1.023,0-1.414l-0.919-0.919c0.426-0.866,0.426-1.881,0-2.747l0.919-0.919   c0.391-0.391,0.391-1.023,0-1.414s-1.023-0.391-1.414,0l-0.92,0.92c-0.866-0.425-1.88-0.425-2.747,0l-0.92-0.92   c-0.391-0.391-1.023-0.391-1.414,0s-0.391,1.023,0,1.414l0.92,0.92c-0.426,0.866-0.426,1.88,0,2.747l-0.92,0.92   C25.901,24.683,25.901,25.315,26.292,25.706z M30.792,21.206c0.437,0.438,0.437,1.148,0,1.586c-0.438,0.438-1.148,0.438-1.586,0   c-0.437-0.438-0.437-1.148,0-1.586c0.219-0.219,0.506-0.328,0.793-0.328S30.573,20.987,30.792,21.206z"/><path d="M59.843,26.736c-0.529-2.138-2.589-3.69-4.916-3.73c-2.367-3.681-6.435-5.96-10.792-6.007c-2.093-4.744-7.786-8-14.136-8   s-12.042,3.257-14.136,8c-4.357,0.047-8.425,2.326-10.792,6.008c-2.527,0.043-4.677,1.858-5.02,4.264   c-0.322,2.261,0.917,4.41,2.948,5.296v9.516c0,1.842,1.283,3.381,3,3.796v4.119c0,0.552,0.448,1,1,1h3   c0.409,0,0.776-0.249,0.929-0.628l1.749-4.372h34.645l1.749,4.372c0.152,0.379,0.52,0.628,0.929,0.628h3c0.553,0,1-0.448,1-1V45.88   c1.717-0.415,3-1.954,3-3.796v-9.514C59.224,31.61,60.451,29.191,59.843,26.736z M15.999,18.999c1.654,0,3,1.346,3,3   c0,0.552,0.448,1,1,1s1-0.448,1-1c0-2.083-1.282-3.868-3.096-4.619c1.928-3.801,6.724-6.381,12.096-6.381s10.169,2.58,12.096,6.381   c-1.815,0.751-3.096,2.536-3.096,4.619c0,0.552,0.448,1,1,1s1-0.448,1-1c0-1.654,1.346-3,3-3c3.444,0,6.69,1.653,8.762,4.388   c-0.551,0.211-1.061,0.5-1.518,0.858c-0.002,0.001-0.004,0.003-0.006,0.004c-0.212,0.167-0.413,0.347-0.6,0.541   c-0.038,0.039-0.072,0.08-0.109,0.12c-0.139,0.153-0.271,0.313-0.393,0.48c-0.039,0.052-0.08,0.102-0.117,0.156   c-0.132,0.193-0.251,0.395-0.359,0.604c-0.039,0.075-0.074,0.151-0.11,0.227c-0.085,0.183-0.162,0.37-0.228,0.563   c-0.017,0.05-0.039,0.098-0.055,0.149c-0.075,0.239-0.13,0.486-0.174,0.736c-0.012,0.068-0.022,0.136-0.031,0.205   c-0.037,0.264-0.062,0.531-0.062,0.805v4.728c-6.189-2.112-12.866-1.987-19,0.367c-6.134-2.354-12.81-2.479-19-0.367v-4.728   c0-0.274-0.026-0.542-0.062-0.806c-0.009-0.068-0.019-0.136-0.031-0.204c-0.044-0.251-0.099-0.499-0.174-0.738   c-0.015-0.049-0.036-0.096-0.053-0.145c-0.067-0.195-0.144-0.384-0.231-0.569c-0.035-0.075-0.069-0.149-0.107-0.221   c-0.109-0.21-0.229-0.414-0.362-0.609c-0.035-0.051-0.074-0.098-0.111-0.148c-0.126-0.171-0.26-0.335-0.403-0.491   c-0.034-0.037-0.066-0.075-0.101-0.111c-0.591-0.615-1.316-1.097-2.126-1.407C9.309,20.652,12.555,18.999,15.999,18.999z    M11.532,37.999c-0.294,0-0.533-0.239-0.533-0.533v-1.78c5.83-2.161,12.17-2.161,18,0v2.313H11.532z M30.999,35.685   c5.83-2.161,12.17-2.161,18,0v1.78c0,0.294-0.239,0.533-0.533,0.533H30.999V35.685z M9.322,48.999H7.999v-3h2.523L9.322,48.999z    M51.999,48.999h-1.323l-1.2-3h2.523V48.999z M55.748,30.889c-0.089,0.023-0.169,0.065-0.246,0.11h-1.503c-0.553,0-1,0.448-1,1   c0,0.552,0.447,1,1,1h1v9.084c0,1.056-0.859,1.916-1.916,1.916h-0.084h-5h-36h-5H6.914c-1.056,0-1.916-0.859-1.916-1.916v-9.084h1   c0.552,0,1-0.448,1-1c0-0.552-0.448-1-1-1H4.495c-0.077-0.045-0.157-0.087-0.246-0.11c-1.481-0.383-2.435-1.817-2.218-3.335   c0.207-1.457,1.553-2.555,3.13-2.555c0.107,0,0.208,0.023,0.312,0.032c0.013,0.002,0.025,0.007,0.038,0.008   c0.494,0.046,0.957,0.181,1.375,0.389c0.008,0.004,0.017,0.009,0.025,0.014c0.19,0.096,0.369,0.209,0.538,0.333   c0.046,0.035,0.089,0.074,0.134,0.11c0.129,0.104,0.254,0.214,0.368,0.334c0.071,0.076,0.134,0.159,0.198,0.24   c0.079,0.098,0.159,0.194,0.228,0.299c0.076,0.117,0.137,0.243,0.2,0.368c0.044,0.087,0.094,0.169,0.131,0.259   c0.063,0.155,0.107,0.319,0.15,0.483c0.019,0.073,0.048,0.142,0.063,0.217c0.048,0.243,0.076,0.494,0.076,0.751v6.162v2.467v1.533   c0,0.552,0.448,1,1,1h1.533h18.467h18.467h1.533c0.553,0,1-0.448,1-1v-1.533v-2.467v-6.162c0-0.257,0.027-0.508,0.076-0.751   c0.015-0.075,0.044-0.144,0.063-0.218c0.043-0.164,0.086-0.327,0.15-0.482c0.037-0.091,0.088-0.174,0.132-0.261   c0.063-0.125,0.124-0.251,0.2-0.367c0.069-0.105,0.15-0.201,0.228-0.299c0.065-0.081,0.127-0.165,0.198-0.24   c0.114-0.12,0.239-0.229,0.368-0.334c0.045-0.037,0.087-0.076,0.134-0.11c0.169-0.125,0.349-0.238,0.539-0.334   c0.008-0.004,0.016-0.009,0.025-0.013c0.418-0.208,0.882-0.344,1.376-0.389c0.013-0.001,0.025-0.007,0.038-0.008   c0.105-0.009,0.205-0.032,0.312-0.032c1.457,0,2.746,0.933,3.064,2.218c0,0,0,0,0,0C58.355,29.049,57.164,30.523,55.748,30.889z"/></g></defs><g fi:class="KUsePattern"><pattern id="pattern_L1_449" width="350" height="350" patternUnits="userSpaceOnUse"><use xlink:href="#L1_449" x="-350" y="-350"/><use xlink:href="#L1_449" x="0" y="-350"/><use xlink:href="#L1_449" x="350" y="-350"/><use xlink:href="#L1_449" x="-350" y="0"/><use xlink:href="#L1_449" x="0" y="0"/><use xlink:href="#L1_449" x="350" y="0"/><use xlink:href="#L1_449" x="-350" y="350"/><use xlink:href="#L1_449" x="0" y="350"/><use xlink:href="#L1_449" x="350" y="350"/></pattern><rect x="0" y="0" width="100%" height="100%" fill="url(#pattern_L1_449)"/></g><g fi:class="KUsePattern"><pattern id="pattern_L1_454" width="350" height="350" patternUnits="userSpaceOnUse"><use xlink:href="#L1_454" x="-350" y="-350"/><use xlink:href="#L1_454" x="0" y="-350"/><use xlink:href="#L1_454" x="350" y="-350"/><use xlink:href="#L1_454" x="-350" y="0"/><use xlink:href="#L1_454" x="0" y="0"/><use xlink:href="#L1_454" x="350" y="0"/><use xlink:href="#L1_454" x="-350" y="350"/><use xlink:href="#L1_454" x="0" y="350"/><use xlink:href="#L1_454" x="350" y="350"/></pattern><rect x="0" y="0" width="100%" height="100%" fill="url(#pattern_L1_454)"/></g><g fi:class="KUsePattern"><pattern id="pattern_L1_451" width="350" height="350" patternUnits="userSpaceOnUse"><use xlink:href="#L1_451" x="-350" y="-350"/><use xlink:href="#L1_451" x="0" y="-350"/><use xlink:href="#L1_451" x="350" y="-350"/><use xlink:href="#L1_451" x="-350" y="0"/><use xlink:href="#L1_451" x="0" y="0"/><use xlink:href="#L1_451" x="350" y="0"/><use xlink:href="#L1_451" x="-350" y="350"/><use xlink:href="#L1_451" x="0" y="350"/><use xlink:href="#L1_451" x="350" y="350"/></pattern><rect x="0" y="0" width="100%" height="100%" fill="url(#pattern_L1_451)"/></g><g fi:class="KUsePattern"><pattern id="pattern_L1_452" width="350" height="350" patternUnits="userSpaceOnUse"><use xlink:href="#L1_452" x="-350" y="-350"/><use xlink:href="#L1_452" x="0" y="-350"/><use xlink:href="#L1_452" x="350" y="-350"/><use xlink:href="#L1_452" x="-350" y="0"/><use xlink:href="#L1_452" x="0" y="0"/><use xlink:href="#L1_452" x="350" y="0"/><use xlink:href="#L1_452" x="-350" y="350"/><use xlink:href="#L1_452" x="0" y="350"/><use xlink:href="#L1_452" x="350" y="350"/></pattern><rect x="0" y="0" width="100%" height="100%" fill="url(#pattern_L1_452)"/></g><g fi:class="KUsePattern"><pattern id="pattern_L1_453" width="350" height="350" patternUnits="userSpaceOnUse"><use xlink:href="#L1_453" x="-350" y="-350"/><use xlink:href="#L1_453" x="0" y="-350"/><use xlink:href="#L1_453" x="350" y="-350"/><use xlink:href="#L1_453" x="-350" y="0"/><use xlink:href="#L1_453" x="0" y="0"/><use xlink:href="#L1_453" x="350" y="0"/><use xlink:href="#L1_453" x="-350" y="350"/><use xlink:href="#L1_453" x="0" y="350"/><use xlink:href="#L1_453" x="350" y="350"/></pattern><rect x="0" y="0" width="100%" height="100%" fill="url(#pattern_L1_453)"/></g><g fi:class="KUsePattern"><pattern id="pattern_L1_455" width="350" height="350" patternUnits="userSpaceOnUse"><use xlink:href="#L1_455" x="-350" y="-350"/><use xlink:href="#L1_455" x="0" y="-350"/><use xlink:href="#L1_455" x="350" y="-350"/><use xlink:href="#L1_455" x="-350" y="0"/><use xlink:href="#L1_455" x="0" y="0"/><use xlink:href="#L1_455" x="350" y="0"/><use xlink:href="#L1_455" x="-350" y="350"/><use xlink:href="#L1_455" x="0" y="350"/><use xlink:href="#L1_455" x="350" y="350"/></pattern><rect x="0" y="0" width="100%" height="100%" fill="url(#pattern_L1_455)"/></g><g fi:class="KUsePattern"><pattern id="pattern_L1_456" width="350" height="350" patternUnits="userSpaceOnUse"><use xlink:href="#L1_456" x="-350" y="-350"/><use xlink:href="#L1_456" x="0" y="-350"/><use xlink:href="#L1_456" x="350" y="-350"/><use xlink:href="#L1_456" x="-350" y="0"/><use xlink:href="#L1_456" x="0" y="0"/><use xlink:href="#L1_456" x="350" y="0"/><use xlink:href="#L1_456" x="-350" y="350"/><use xlink:href="#L1_456" x="0" y="350"/><use xlink:href="#L1_456" x="350" y="350"/></pattern><rect x="0" y="0" width="100%" height="100%" fill="url(#pattern_L1_456)"/></g><g fi:class="KUsePattern"><pattern id="pattern_L1_457" width="350" height="350" patternUnits="userSpaceOnUse"><use xlink:href="#L1_457" x="-350" y="-350"/><use xlink:href="#L1_457" x="0" y="-350"/><use xlink:href="#L1_457" x="350" y="-350"/><use xlink:href="#L1_457" x="-350" y="0"/><use xlink:href="#L1_457" x="0" y="0"/><use xlink:href="#L1_457" x="350" y="0"/><use xlink:href="#L1_457" x="-350" y="350"/><use xlink:href="#L1_457" x="0" y="350"/><use xlink:href="#L1_457" x="350" y="350"/></pattern><rect x="0" y="0" width="100%" height="100%" fill="url(#pattern_L1_457)"/></g></svg>